<svg width="512" height="512" viewBox="0 0 512 512" fill="none" xmlns="http://www.w3.org/2000/svg">
  <rect x="48" y="48" width="416" height="432" rx="24" fill="#F5F5F5" stroke="#333333" stroke-width="12"/>

  <line x1="96" y1="160" x2="416" y2="160" stroke="#CCCCCC" stroke-width="8" stroke-linecap="round"/>
  <line x1="96" y1="224" x2="416" y2="224" stroke="#CCCCCC" stroke-width="8" stroke-linecap="round"/>
  <line x1="96" y1="288" x2="416" y2="288" stroke="#CCCCCC" stroke-width="8" stroke-linecap="round"/>
  <line x1="96" y1="352" x2="416" y2="352" stroke="#CCCCCC" stroke-width="8" stroke-linecap="round"/>

  <rect x="48" y="24" width="416" height="56" rx="12" fill="#4A90E2" stroke="#333333" stroke-width="8"/>
  <circle cx="96" cy="52" r="12" fill="#FFFFFF" stroke="#333333" stroke-width="4"/>
  <circle cx="176" cy="52" r="12" fill="#FFFFFF" stroke="#333333" stroke-width="4"/>
  <circle cx="256" cy="52" r="12" fill="#FFFFFF" stroke="#333333" stroke-width="4"/>
  <circle cx="336" cy="52" r="12" fill="#FFFFFF" stroke="#333333" stroke-width="4"/>
  <circle cx="416" cy="52" r="12" fill="#FFFFFF" stroke="#333333" stroke-width="4"/>

  <g transform="translate(256, 280) rotate(45)">
    <circle cx="0" cy="-70" r="55" fill="#FFC107" stroke="#333333" stroke-width="14"/>
    <circle cx="0" cy="-70" r="20" fill="#F5F5F5" stroke="#333333" stroke-width="8"/>
    <rect x="-18" y="-20" width="36" height="160" rx="4" fill="#FFC107" stroke="#333333" stroke-width="14"/>

    <rect x="18" y="60" width="30" height="25" rx="4" fill="#FFC107" stroke="#333333" stroke-width="14"/>
    <rect x="18" y="100" width="40" height="25" rx="4" fill="#FFC107" stroke="#333333" stroke-width="14"/>
  </g>
</svg>